<?xml version="1.0" encoding="utf-8"?>
<!-- Generator: Adobe Illustrator 25.2.3, SVG Export Plug-In . SVG Version: 6.00 Build 0)  -->
<svg version="1.1" id="Layer_1" xmlns="http://www.w3.org/2000/svg" xmlns:xlink="http://www.w3.org/1999/xlink" x="0px" y="0px"
	 viewBox="0 0 369 261.3" style="enable-background:new 0 0 369 261.3;" xml:space="preserve" fill="currentColor">
<g>
	<path d="M210.4,163.3c-7.6-0.1-13.8-2.8-18.9-8.2c-1.2-1.3-2.3-2.7-3.2-4.3c-0.5-0.8-0.6-1.8-0.2-2.7c1.9-5,2.8-10.8,2.8-17.5
		c0-12.2-3.1-21.6-9.2-28.2c-6.1-6.6-13.8-9.9-23.1-9.9H126c-9.3,0-17,3.3-23.1,9.9c-6.1,6.6-9.2,16-9.2,28.2
		c0,12.2,3.1,21.6,9.4,28.2c6.2,6.5,13.8,9.7,22.9,9.9l21.8,0c1,0,2,0.6,2.6,1.4c6.2,10,14.5,17.8,24.7,23.4
		c0.1,0.1,0.2,0.1,0.3,0.2c0.5,0.3,0.5,1.1-0.2,1.3c-5.3,1.3-10.8,2-16.6,2H126c-12-0.1-22.9-2.9-32.7-8.2
		c-10.1-5.5-18-13.3-23.8-23.3c-5.8-10.1-8.7-21.7-8.7-34.8c0-13.2,2.8-24.8,8.5-34.8C74.9,85.8,82.7,78,92.6,72.5
		c9.9-5.5,21-8.2,33.4-8.2h32.6c12.4,0,23.5,2.7,33.4,8.2c9.9,5.5,17.7,13.3,23.3,23.3c5.6,10.1,8.5,21.7,8.5,34.8
		c0,11.5-2.2,21.8-6.7,30.9c-0.5,1-1.5,1.7-2.7,1.7H210.4z"/>
	<path d="M158.6,98.1c7.6,0.1,13.8,2.8,18.9,8.2c1.2,1.3,2.3,2.7,3.2,4.3c0.5,0.8,0.6,1.8,0.2,2.7c-1.9,5-2.8,10.8-2.8,17.5
		c0,12.2,3.1,21.6,9.2,28.2c6.1,6.6,13.8,9.9,23.1,9.9H243c9.3,0,17-3.3,23.1-9.9c6.1-6.6,9.2-16,9.2-28.2c0-12.2-3.1-21.6-9.4-28.2
		c-6.2-6.5-13.8-9.7-22.9-9.9l-21.8,0c-1,0-2-0.6-2.6-1.4c-6.2-10-14.5-17.8-24.7-23.4c-0.1-0.1-0.2-0.1-0.3-0.2
		c-0.5-0.3-0.5-1.1,0.2-1.3c5.3-1.3,10.8-2,16.6-2H243c12,0.1,22.9,2.9,32.7,8.2c10.1,5.5,18,13.3,23.8,23.3
		c5.8,10.1,8.7,21.7,8.7,34.8c0,13.2-2.8,24.8-8.5,34.8c-5.6,10.1-13.4,17.8-23.3,23.3c-9.9,5.5-21,8.2-33.4,8.2h-32.6
		c-12.4,0-23.5-2.7-33.4-8.2c-9.9-5.5-17.7-13.3-23.3-23.3c-5.6-10.1-8.5-21.7-8.5-34.8c0-11.5,2.2-21.8,6.7-30.9
		c0.5-1,1.5-1.7,2.7-1.7H158.6z"/>
</g>
</svg>
